<?xml version="1.0" standalone="no"?>
<!DOCTYPE svg PUBLIC "-//W3C//DTD SVG 20010904//EN"
 "http://www.w3.org/TR/2001/REC-SVG-20010904/DTD/svg10.dtd">
<svg version="1.0" xmlns="http://www.w3.org/2000/svg"
 width="500.000000pt" height="500.000000pt" viewBox="0 0 500.000000 500.000000"
 preserveAspectRatio="xMidYMid meet">
<metadata>
Created by potrace 1.11, written by Peter Selinger 2001-2013
</metadata>
<g transform="translate(0.000000,500.000000) scale(0.100000,-0.100000)"
fill="#000000" stroke="none">
<path d="M0 2500 l0 -2500 630 0 630 0 -2 1728 c-3 1611 -4 1730 -20 1778 -49
142 -116 179 -345 191 l-123 6 0 61 0 62 438 42 c240 23 470 42 510 42 l72 0
0 -235 c0 -129 3 -235 6 -235 3 0 45 36 92 80 231 212 424 319 672 370 91 19
127 21 265 17 175 -6 268 -24 403 -78 383 -153 688 -546 782 -1008 30 -148 42
-343 30 -501 -24 -308 -101 -543 -257 -779 -70 -106 -270 -309 -369 -374 -228
-150 -464 -219 -749 -220 -266 -1 -490 73 -758 252 -58 39 -108 71 -111 71 -3
0 -6 -286 -6 -635 l0 -635 1605 0 1605 0 0 2500 0 2500 -2500 0 -2500 0 0
-2500z"/>
<path d="M2455 3641 c-129 -21 -273 -82 -394 -169 -35 -25 -111 -90 -167 -145
l-104 -100 0 -888 0 -888 89 -78 c144 -126 276 -198 449 -245 104 -29 326 -31
422 -5 234 65 436 247 565 512 100 203 143 384 152 635 12 332 -44 619 -173
873 -132 262 -311 422 -541 481 -75 20 -228 28 -298 17z"/>
</g>
</svg>
